<svg viewBox="0 0 512 512" xmlns="http://www.w3.org/2000/svg"><path d="M405.6 251.9c-14.7-28.8-33.4-74.9-57-133.1-5.7-14.2-11.8-29.1-18.1-44.6-18.2-44.6-36.4-61.1-69.7-63.2h-9.9c-32.9 2.1-51.1 18.7-69.3 63.2-6.3 15.5-12.4 30.4-18.1 44.6-23.7 58.3-42.3 104.3-57 133.1-13 25.6-37.3 115.9-.5 180.7 24.3 42.9 70.4 65.9 136.9 68.4h26.3c66.5-2.5 112.5-25.6 136.8-68.4 36.8-64.8 12.5-155.1-.4-180.7z" fill="#d8d152"/><path d="M415.1 246.8c-14.5-28.5-33.1-74.3-56.6-132.3-5.8-14.2-11.8-29.1-18.1-44.6-16.8-41.1-35.9-67.2-79.2-70h-10.5c-43 2.8-62 28.8-78.9 69.9-6.3 15.5-12.4 30.4-18.1 44.6-23.6 58-42.2 103.9-56.6 132.3C81 278.4 58.6 370.5 96.9 438c26.3 46.3 75.3 71.2 146 73.9h26.8c70.4-2.7 119.5-27.5 145.8-73.9 38.1-67.3 15.7-159.5-.4-191.2zM406 432.6c-24.3 42.9-70.4 65.9-136.8 68.4h-26.3c-66.5-2.6-112.6-25.6-136.9-68.4-36.8-64.8-12.6-155.1.5-180.7 14.7-28.8 33.4-74.9 57-133.1 5.8-14.2 11.8-29.1 18.1-44.6C199.8 29.6 218 13.1 250.9 11h9.9c33.2 2.1 51.4 18.7 69.7 63.2 6.3 15.5 12.4 30.4 18.1 44.6 23.6 58.3 42.3 104.3 57 133.1 12.9 25.6 37.2 115.9.4 180.7z" fill="#4f5037"/><path d="M355.7 285.4c-9.1-17.8-20.7-46.6-35.5-83-3.6-8.9-7.4-18.2-11.4-28-10.5-25.8-22.5-42.1-49.7-43.9h-6.6c-27 1.7-38.9 18.1-49.5 43.9-4 9.7-7.8 19.1-11.4 28-14.8 36.4-26.4 65.1-35.5 83-10.1 19.9-24.1 77.6-.1 120 16.5 29.1 47.2 44.6 91.5 46.3h16.8c44.2-1.7 74.9-17.3 91.4-46.3 24.2-42.4 10.1-100.2 0-120z" fill="#f3e99b"/><path d="M333.7 332.6c0 51.8-34.8 93.9-77.7 93.9-42.9 0-77.7-42-77.7-93.9 0-51.9 34.8-93.9 77.7-93.9 42.9 0 77.7 42.1 77.7 93.9z" fill="#59352f"/></svg>